<svg width="49" height="49" viewBox="0 0 49 49" fill="none" xmlns="http://www.w3.org/2000/svg">
<path fill-rule="evenodd" clip-rule="evenodd" d="M22.0732 0.0217286C17.3314 0.585757 13.4146 2.12211 9.71612 4.86859C8.26706 5.9448 5.94423 8.26849 4.8737 9.71303C2.3741 13.0857 0.899652 16.5712 0.18999 20.7844C-0.0633299 22.2881 -0.0633299 26.6814 0.18999 28.1851C1.10518 33.6191 3.36064 38.037 7.15039 41.8194C10.9041 45.5659 15.1839 47.7809 20.5039 48.7307C22.1263 49.0203 25.5818 49.0908 27.3829 48.8711C32.9697 48.1893 37.8252 45.8188 41.8221 41.8215C45.8161 37.8273 48.1898 32.9645 48.8711 27.3812C49.0908 25.58 49.0203 22.1242 48.7307 20.5017C47.8071 15.3273 45.6233 11.0229 42.0699 7.37283C38.8781 4.09418 34.9007 1.7841 30.5471 0.680373C28.4511 0.149074 27.4946 0.0356314 24.8728 0.00772928C23.5189 -0.00665624 22.259 -0.000380676 22.0732 0.0217286ZM13.5939 12.5711C12.7699 12.9818 12.3211 13.7367 12.3248 14.7063C12.3287 15.7358 12.3611 15.7755 16.887 20.3086L21.0555 24.4837L16.8465 28.7082C12.1612 33.4107 12.2639 33.2796 12.3392 34.463C12.4172 35.6868 13.2516 36.5259 14.4894 36.6253C15.6826 36.7211 15.5412 36.8313 20.2631 32.126L24.4867 27.9172L28.7103 32.1233C31.0333 34.4365 33.0937 36.4248 33.2892 36.5415C33.8167 36.8566 34.4945 36.9088 35.0226 36.6752C36.4115 36.0607 37.0726 34.4927 36.4599 33.2662C36.3124 32.971 34.9389 31.5264 32.0814 28.6609L27.9179 24.4858L32.1268 20.2613C36.8122 15.5588 36.7094 15.6899 36.6341 14.5065C36.5558 13.2778 35.6927 12.4146 34.4641 12.3363C33.2808 12.261 33.4119 12.1583 28.7098 16.844L24.4856 21.0533L20.3109 16.8845C17.1705 13.7486 16.0284 12.667 15.7016 12.5198C15.0625 12.2318 14.2344 12.252 13.5939 12.5711Z" fill="#0E162D"/>
</svg>
