<svg width="38" height="38" viewBox="0 0 38 38" fill="none" xmlns="http://www.w3.org/2000/svg">
<path fill-rule="evenodd" clip-rule="evenodd" d="M26.1983 0.0766489C24.1927 0.483235 22.5492 1.72012 21.6821 3.47538L21.4491 3.94714L11.4946 3.98503L1.54013 4.02292L1.21431 4.1898C0.693755 4.45641 0.41535 4.7206 0.189745 5.16205C0.0065702 5.52058 -0.0167819 5.64593 0.0109239 6.12482C0.0473373 6.75573 0.200828 7.11093 0.603433 7.49637C1.21953 8.08621 0.273575 8.0368 11.4351 8.06226L21.4092 8.08499L21.7453 8.74819C22.5267 10.2897 23.9103 11.4004 25.6838 11.9096C26.2869 12.0827 26.5481 12.1148 27.3857 12.1184C28.8245 12.1247 29.909 11.8114 31.0772 11.0519C31.9784 10.466 33.0172 9.227 33.329 8.36593L33.4304 8.08598L34.9795 8.06279C36.7039 8.03687 36.86 8.00019 37.3862 7.49637C37.7888 7.11093 37.9423 6.75573 37.9787 6.12482C38.0064 5.64593 37.9831 5.52058 37.7999 5.16205C37.5738 4.71976 37.294 4.45452 36.7753 4.19132C36.4805 4.04164 36.3064 4.02323 34.9455 3.99776L33.4414 3.96965L33.1455 3.3767C32.3877 1.85797 30.8024 0.601156 29.0877 0.159558C28.4293 -0.00997325 26.8492 -0.0552926 26.1983 0.0766489ZM14.0869 13.0795C12.199 13.5275 10.57 14.8324 9.81064 16.505L9.61441 16.9373L5.53769 16.9597C1.53174 16.9818 1.45551 16.985 1.14433 17.146C0.412342 17.5248 0 18.1895 0 18.9904C0 19.7914 0.412342 20.4561 1.14433 20.8349C1.45551 20.9959 1.53174 20.9991 5.53769 21.0212L9.61441 21.0436L9.81064 21.4759C10.5782 23.1665 12.2109 24.4642 14.1265 24.9061C15.0003 25.1077 16.3024 25.1052 17.1417 24.9005C19.0736 24.4291 20.6868 23.1307 21.4481 21.4345L21.6266 21.0366H28.925C37.0368 21.0366 36.6275 21.0616 37.2822 20.5252C38.4041 19.6058 38.175 17.8342 36.8453 17.146L36.5287 16.9821L29.077 16.9617L21.6252 16.9412L21.4473 16.5449C20.6869 14.8502 19.0729 13.5516 17.1417 13.0804C16.3171 12.8792 14.9327 12.8788 14.0869 13.0795ZM26.515 25.8861C25.1724 26.0918 23.9035 26.7106 22.948 27.6253C22.3597 28.1885 21.7079 29.1162 21.5225 29.6541L21.437 29.9017L11.449 29.9216C1.9801 29.9403 1.44593 29.9485 1.17204 30.079C0.800066 30.2563 0.361759 30.6773 0.183175 31.0289C0.103145 31.1864 0.0290515 31.5426 0.0109239 31.8561C-0.0167819 32.335 0.0065702 32.4603 0.189745 32.8188C0.41535 33.2603 0.693755 33.5245 1.21431 33.7911L1.54013 33.958L11.4946 33.9959L21.4491 34.0338L21.69 34.5217C22.8073 36.7834 25.235 38.15 27.8458 37.9869C29.4557 37.8863 30.7706 37.3259 31.9042 36.2574C32.4276 35.764 33.0774 34.8631 33.2847 34.3435L33.4179 34.0096L34.9337 33.9823C36.3078 33.9575 36.48 33.9396 36.7753 33.7896C37.294 33.5264 37.5738 33.2611 37.7999 32.8188C37.9831 32.4603 38.0064 32.335 37.9787 31.8561C37.9423 31.2252 37.7888 30.87 37.3862 30.4845C36.86 29.9807 36.7039 29.944 34.9795 29.9181L33.4304 29.8949L33.329 29.615C33.0172 28.7539 31.9784 27.5149 31.0772 26.929C30.4707 26.5347 29.6164 26.1634 28.9576 26.008C28.3151 25.8563 27.1036 25.7959 26.515 25.8861Z" fill="black"/>
<path fill-rule="evenodd" clip-rule="evenodd" d="M26.1983 0.0766489C24.1927 0.483235 22.5492 1.72012 21.6821 3.47538L21.4491 3.94714L11.4946 3.98503L1.54013 4.02292L1.21431 4.1898C0.693755 4.45641 0.41535 4.7206 0.189745 5.16205C0.0065702 5.52058 -0.0167819 5.64593 0.0109239 6.12482C0.0473373 6.75573 0.200828 7.11093 0.603433 7.49637C1.21953 8.08621 0.273575 8.0368 11.4351 8.06226L21.4092 8.08499L21.7453 8.74819C22.5267 10.2897 23.9103 11.4004 25.6838 11.9096C26.2869 12.0827 26.5481 12.1148 27.3857 12.1184C28.8245 12.1247 29.909 11.8114 31.0772 11.0519C31.9784 10.466 33.0172 9.227 33.329 8.36593L33.4304 8.08598L34.9795 8.06279C36.7039 8.03687 36.86 8.00019 37.3862 7.49637C37.7888 7.11093 37.9423 6.75573 37.9787 6.12482C38.0064 5.64593 37.9831 5.52058 37.7999 5.16205C37.5738 4.71976 37.294 4.45452 36.7753 4.19132C36.4805 4.04164 36.3064 4.02323 34.9455 3.99776L33.4414 3.96965L33.1455 3.3767C32.3877 1.85797 30.8024 0.601156 29.0877 0.159558C28.4293 -0.00997325 26.8492 -0.0552926 26.1983 0.0766489ZM14.0869 13.0795C12.199 13.5275 10.57 14.8324 9.81064 16.505L9.61441 16.9373L5.53769 16.9597C1.53174 16.9818 1.45551 16.985 1.14433 17.146C0.412342 17.5248 0 18.1895 0 18.9904C0 19.7914 0.412342 20.4561 1.14433 20.8349C1.45551 20.9959 1.53174 20.9991 5.53769 21.0212L9.61441 21.0436L9.81064 21.4759C10.5782 23.1665 12.2109 24.4642 14.1265 24.9061C15.0003 25.1077 16.3024 25.1052 17.1417 24.9005C19.0736 24.4291 20.6868 23.1307 21.4481 21.4345L21.6266 21.0366H28.925C37.0368 21.0366 36.6275 21.0616 37.2822 20.5252C38.4041 19.6058 38.175 17.8342 36.8453 17.146L36.5287 16.9821L29.077 16.9617L21.6252 16.9412L21.4473 16.5449C20.6869 14.8502 19.0729 13.5516 17.1417 13.0804C16.3171 12.8792 14.9327 12.8788 14.0869 13.0795ZM26.515 25.8861C25.1724 26.0918 23.9035 26.7106 22.948 27.6253C22.3597 28.1885 21.7079 29.1162 21.5225 29.6541L21.437 29.9017L11.449 29.9216C1.9801 29.9403 1.44593 29.9485 1.17204 30.079C0.800066 30.2563 0.361759 30.6773 0.183175 31.0289C0.103145 31.1864 0.0290515 31.5426 0.0109239 31.8561C-0.0167819 32.335 0.0065702 32.4603 0.189745 32.8188C0.41535 33.2603 0.693755 33.5245 1.21431 33.7911L1.54013 33.958L11.4946 33.9959L21.4491 34.0338L21.69 34.5217C22.8073 36.7834 25.235 38.15 27.8458 37.9869C29.4557 37.8863 30.7706 37.3259 31.9042 36.2574C32.4276 35.764 33.0774 34.8631 33.2847 34.3435L33.4179 34.0096L34.9337 33.9823C36.3078 33.9575 36.48 33.9396 36.7753 33.7896C37.294 33.5264 37.5738 33.2611 37.7999 32.8188C37.9831 32.4603 38.0064 32.335 37.9787 31.8561C37.9423 31.2252 37.7888 30.87 37.3862 30.4845C36.86 29.9807 36.7039 29.944 34.9795 29.9181L33.4304 29.8949L33.329 29.615C33.0172 28.7539 31.9784 27.5149 31.0772 26.929C30.4707 26.5347 29.6164 26.1634 28.9576 26.008C28.3151 25.8563 27.1036 25.7959 26.515 25.8861Z" fill="url(#paint0_linear_81_171)"/>
<defs>
<linearGradient id="paint0_linear_81_171" x1="8.29362" y1="14.2523" x2="44.4338" y2="34.0348" gradientUnits="userSpaceOnUse">
<stop stop-color="#9A82FF"/>
<stop offset="1" stop-color="#0085FF"/>
</linearGradient>
</defs>
</svg>
