<svg width="49" height="42" viewBox="0 0 49 42" fill="none" xmlns="http://www.w3.org/2000/svg">
<path fill-rule="evenodd" clip-rule="evenodd" d="M12.1473 0.0493465C10.0467 0.291985 8.58795 0.721147 6.93401 1.58313C3.50784 3.36857 1.03544 6.69066 0.202731 10.6277C-0.0424785 11.787 -0.0703616 14.1798 0.14708 15.4046C0.498085 17.3815 1.38116 19.4137 2.57876 21.0008C2.95179 21.4951 7.49948 26.1049 13.2531 31.821C23.1787 41.6818 23.2836 41.7813 23.88 41.9186C24.3521 42.0271 24.6128 42.0271 25.0848 41.9186C25.6814 41.7813 25.7844 41.6834 35.7637 31.7638C41.3057 26.255 46.0952 21.4135 46.4068 21.0049C48.3206 18.4959 49.2759 15.0194 48.9303 11.8223C48.3313 6.28127 44.5043 1.84645 39.1063 0.438163C35.6676 -0.458904 31.8749 0.129464 28.7777 2.0404C28.0839 2.46842 27.2598 3.15474 26.1245 4.25021L24.4777 5.83908L22.9594 4.35239C21.2638 2.69197 19.9153 1.73273 18.3727 1.08951C16.41 0.271184 13.8831 -0.151005 12.1473 0.0493465Z" fill="white"/>
</svg>
